<svg xmlns="http://www.w3.org/2000/svg" xmlns:xlink="http://www.w3.org/1999/xlink" viewBox="0 0 342 379.15"><defs><style>.cls-1,.cls-13,.cls-3{fill:#1152fd;}.cls-1,.cls-11,.cls-4,.cls-5,.cls-8,.cls-9{stroke:#263238;}.cls-1,.cls-11,.cls-4,.cls-7,.cls-8,.cls-9{stroke-linecap:round;stroke-linejoin:round;}.cls-2{fill:#c6ff00;}.cls-3{opacity:0.75;}.cls-11,.cls-4,.cls-5,.cls-7{fill:none;}.cls-5{stroke-miterlimit:10;}.cls-6,.cls-9{fill:#fff;}.cls-7{stroke:#fff;}.cls-12,.cls-8{fill:#263238;}.cls-10{opacity:0.11;}.cls-11{stroke-width:0.5px;}.cls-14{clip-path:url(#clip-path);}.cls-15{opacity:0.26;}</style><clipPath id="clip-path" transform="translate(-75.5 -57.37)"><path class="cls-1" d="M275.5,338.15s-7-.63-13-1.3-8.52-1-8.52-1,2,12.68,2,13.5-4.14,12.95-4.14,12.95l4.5,14.21s19.58-.57,26.78-.87S302,373,302,373s-6.76-9.09-8.23-11.43a31.54,31.54,0,0,0-2.46-3.47L301.58,347s-1.41-9.75-2-11.21-.79-2.06-.79-2.06S279.59,338.57,275.5,338.15Z"/></clipPath></defs><g id="Background_Simple" data-name="Background Simple"><path class="cls-2" d="M410.22,221.77c-.35-2-.66-3.9-.91-5.86-1.45-11.41-12-64.56-83.44-96.8-80.41-36.27-134.74,1-167.34,30.39s-55.41,91.15-73.88,145.06,25,95.08,78.23,112.73,120.61,19.6,172.77,1C387.23,389.85,430.32,332.11,410.22,221.77Z" transform="translate(-75.5 -57.37)"/><path class="cls-3" d="M410.22,221.77c-.35-2-.66-3.9-.91-5.86-1.45-11.41-12-64.56-83.44-96.8-80.41-36.27-134.74,1-167.34,30.39s-55.41,91.15-73.88,145.06,25,95.08,78.23,112.73,120.61,19.6,172.77,1C387.23,389.85,430.32,332.11,410.22,221.77Z" transform="translate(-75.5 -57.37)"/></g><g id="Buildings"><polyline class="cls-4" points="223.95 21.8 223.95 225.75 281.11 325.78 335.91 325.78"/><path class="cls-4" d="M299.45,277.89H260.82L113.22,402.47a17.54,17.54,0,0,0-.11,26.72h0a17.57,17.57,0,0,0,11.42,4.22H410.14" transform="translate(-75.5 -57.37)"/><path class="cls-4" d="M107,418.41a17.44,17.44,0,0,0,6.12,13.38h0A17.53,17.53,0,0,0,124.53,436H410.14" transform="translate(-75.5 -57.37)"/><line class="cls-4" x1="7.6" y1="268.61" x2="155.03" y2="226.18"/><polyline class="cls-4" points="106.72 8.13 106.72 232.52 0.5 256.92"/><line class="cls-5" x1="129.24" y1="227.37" x2="153.96" y2="222.13"/><polyline class="cls-4" points="107.44 91.56 129.25 91.09 129.25 227.37 106.72 227.85"/><polyline class="cls-4" points="129.74 91.56 161.38 118.89 161.38 164.41"/><polyline class="cls-4" points="157.78 107.38 157.78 92.28 173.61 92.28 173.61 146.94"/><polyline class="cls-4" points="173.61 92.28 182.24 105.22 182.24 132.55 192.31 132.55 192.31 143.34"/><line class="cls-4" x1="192.31" y1="132.55" x2="196.62" y2="139.03"/><rect class="cls-4" x="201.57" y="43.6" width="22.49" height="121.31"/><rect class="cls-4" x="233.04" y="109.47" width="16.34" height="64.41"/><line class="cls-4" x1="241.18" y1="106.62" x2="281.11" y2="80.63"/><line class="cls-4" x1="280.42" y1="62.47" x2="232.08" y2="103.7"/><line class="cls-4" x1="281.11" y1="27.76" x2="250.02" y2="66.3"/><line class="cls-4" x1="249.65" y1="157.89" x2="281.11" y2="150.81"/><line class="cls-4" x1="226.49" y1="163.17" x2="232.67" y2="161.6"/><line class="cls-4" x1="281.11" y1="325.78" x2="281.11" y2="16.22"/><line class="cls-4" x1="281.11" y1="150.81" x2="341.5" y2="150.81"/><line class="cls-4" x1="249.65" y1="154.31" x2="281.11" y2="144.93"/><line class="cls-4" x1="281.11" y1="144.93" x2="341.5" y2="144.93"/><polyline class="cls-4" points="249.34 145.01 280.04 129.87 322.42 129.87"/><line class="cls-4" x1="226.54" y1="156.27" x2="233.08" y2="153.04"/><line class="cls-4" x1="201.71" y1="69.58" x2="223.32" y2="69.58"/><line class="cls-4" x1="201.71" y1="93.44" x2="223.32" y2="93.44"/><line class="cls-4" x1="201.71" y1="117.3" x2="223.32" y2="117.3"/><line class="cls-4" x1="201.71" y1="141.15" x2="223.32" y2="141.15"/><path class="cls-5" d="M339.89,167H304a1.47,1.47,0,1,1,0-2.94h35.94a1.47,1.47,0,1,1,0,2.94Z" transform="translate(-75.5 -57.37)"/><line class="cls-4" x1="233.03" y1="23.83" x2="233.03" y2="95.71"/><line class="cls-4" x1="240.87" y1="17.29" x2="240.87" y2="90.48"/><line class="cls-4" x1="250.02" y1="10.76" x2="250.02" y2="81.98"/><line class="cls-4" x1="250.02" y1="50.98" x2="272.89" y2="14.68"/><polyline class="cls-4" points="106.81 111.23 128.93 111.23 158.04 130.25"/><polyline class="cls-4" points="106.81 128.31 128.93 128.31 158.04 145.77"/><polyline class="cls-4" points="106.81 145.38 128.93 145.38 158.04 160.91"/><polyline class="cls-4" points="106.81 162.46 128.93 162.46 155.33 174.11"/><polyline class="cls-4" points="106.81 179.54 128.93 179.54 147.95 185.86"/><polyline class="cls-4" points="106.81 196.62 128.93 196.62 135.27 197.98"/><rect class="cls-4" x="119.23" y="117.05" width="4.66" height="8.93"/><rect class="cls-4" x="109.91" y="117.05" width="4.66" height="8.93"/><rect class="cls-4" x="119.23" y="133.35" width="4.66" height="8.93"/><rect class="cls-4" x="109.91" y="133.35" width="4.66" height="8.93"/><rect class="cls-4" x="119.23" y="149.27" width="4.66" height="8.93"/><rect class="cls-4" x="109.91" y="149.27" width="4.66" height="8.93"/><rect class="cls-4" x="119.23" y="166.35" width="4.66" height="8.93"/><rect class="cls-4" x="109.91" y="166.35" width="4.66" height="8.93"/><rect class="cls-4" x="119.23" y="183.42" width="4.66" height="8.93"/><rect class="cls-4" x="109.91" y="183.42" width="4.66" height="8.93"/><rect class="cls-4" x="119.23" y="200.89" width="4.66" height="8.93"/><rect class="cls-4" x="109.91" y="200.89" width="4.66" height="8.93"/><rect class="cls-4" x="119.23" y="98.42" width="4.66" height="8.93"/><polyline class="cls-4" points="136.7 112.78 133.2 110.06 133.2 101.13 136.7 103.85"/><polyline class="cls-4" points="133.2 117.83 136.7 120.54 136.7 129.47 133.2 126.75"/><polyline class="cls-4" points="136.7 138.01 136.7 145.98 133.2 144.22 133.2 135.29"/><polygon class="cls-4" points="136.7 161.4 133.2 159.64 133.2 150.71 136.7 152.83 136.7 161.4"/><polyline class="cls-4" points="136.7 177.76 133.2 176.47 133.2 167.54 136.7 169.19"/><rect class="cls-4" x="109.91" y="98.42" width="4.66" height="8.93"/><polyline class="cls-4" points="254.59 279.98 254.59 162.36 270.27 160.4 270.27 305.47"/><line class="cls-4" x1="238.91" y1="251.88" x2="238.91" y2="176.74"/><line class="cls-4" x1="242.17" y1="257.11" x2="242.17" y2="180.66"/><line class="cls-4" x1="258.51" y1="55.85" x2="258.51" y2="77.41"/><line class="cls-4" x1="266" y1="47.42" x2="266" y2="68.98"/><line class="cls-4" x1="258.51" y1="13.72" x2="258.51" y2="36.93"/><line class="cls-4" x1="266" y1="5.29" x2="266" y2="25.07"/><line class="cls-4" x1="1.8" y1="264.3" x2="159.23" y2="223.61"/><line class="cls-4" x1="13.46" y1="182.62" x2="106.25" y2="187.85"/><line class="cls-4" x1="13.46" y1="167.59" x2="106.25" y2="180"/><polyline class="cls-4" points="59.2 242.91 59.2 190.16 43.52 189.57 43.52 246.54"/><polyline class="cls-4" points="74.23 239.44 74.23 190.72 63.78 190.33 63.78 241.85"/><polyline class="cls-4" points="38.95 247.6 38.95 189.4 14.77 188.5 14.77 253.19"/><polyline class="cls-4" points="102.33 232.93 102.33 191.77 78.81 190.89 78.81 238.38"/><line class="cls-4" x1="139.76" y1="114.11" x2="139.76" y2="104.82"/><line class="cls-4" x1="139.76" y1="130.73" x2="139.76" y2="121.44"/><line class="cls-4" x1="139.76" y1="163" x2="139.76" y2="153.71"/><line class="cls-4" x1="139.76" y1="179.38" x2="139.76" y2="170.09"/><line class="cls-4" x1="143.18" y1="164.96" x2="143.18" y2="155.67"/><line class="cls-4" x1="146.85" y1="151.76" x2="146.85" y2="142.47"/><line class="cls-4" x1="149.78" y1="153.96" x2="149.78" y2="144.67"/><line class="cls-4" x1="149.78" y1="137.82" x2="149.78" y2="128.53"/><line class="cls-4" x1="282.03" y1="159.75" x2="315.36" y2="159.75"/><line class="cls-4" x1="282.03" y1="170.86" x2="315.36" y2="170.86"/><line class="cls-4" x1="282.03" y1="181.96" x2="315.36" y2="181.96"/><line class="cls-4" x1="282.03" y1="193.07" x2="315.36" y2="193.07"/><line class="cls-4" x1="282.03" y1="204.18" x2="315.36" y2="204.18"/><line class="cls-4" x1="282.03" y1="215.29" x2="315.36" y2="215.29"/><line class="cls-4" x1="282.03" y1="226.4" x2="315.36" y2="226.4"/><line class="cls-4" x1="282.03" y1="237.51" x2="315.36" y2="237.51"/><line class="cls-4" x1="282.03" y1="248.62" x2="315.36" y2="248.62"/><line class="cls-4" x1="282.03" y1="259.73" x2="315.36" y2="259.73"/><line class="cls-4" x1="282.03" y1="270.83" x2="315.36" y2="270.83"/><line class="cls-4" x1="282.03" y1="281.94" x2="315.36" y2="281.94"/><polyline class="cls-4" points="315.36 150.6 315.36 295.67 321.9 295.67 321.9 322.46"/><line class="cls-4" x1="315.36" y1="295.67" x2="285.3" y2="295.67"/><line class="cls-4" x1="225.18" y1="215.94" x2="235.64" y2="224.44"/><line class="cls-4" x1="223.22" y1="176.08" x2="208.85" y2="176.08"/><polyline class="cls-4" points="209.73 176.32 209.73 187.73 215.09 187.73 215.09 176.49"/><line class="cls-5" x1="94.21" y1="177.87" x2="94.21" y2="3.58"/><line class="cls-5" x1="101.18" y1="178.57" x2="101.18" y2="49.6"/><line class="cls-5" x1="82.36" y1="177.17" x2="82.36" y2="21.01"/><line class="cls-5" x1="69.11" y1="174.39" x2="69.11" y2="27.29"/><line class="cls-5" x1="57.26" y1="172.99" x2="57.26" y2="24.5"/><line class="cls-5" x1="41.92" y1="170.9" x2="41.92" y2="16.13"/><line class="cls-5" x1="25.89" y1="170.2" x2="25.89" y2="21.71"/><line class="cls-5" x1="16.82" y1="142.32" x2="101.88" y2="163.74"/><line class="cls-5" x1="18.92" y1="117.92" x2="100.75" y2="144.14"/><line class="cls-5" x1="37.04" y1="94.91" x2="101.5" y2="124.16"/><line class="cls-5" x1="37.04" y1="27.98" x2="101.12" y2="72.51"/></g><g id="Lamppost"><polygon class="cls-1" points="85.47 78.87 54.1 77.24 54.1 64.17 85.47 62.53 85.47 78.87"/><rect class="cls-1" x="86.12" y="36.26" width="57.5" height="16.34"/><path class="cls-6" d="M187.91,104.88a.86.86,0,0,1-.53.17.9.9,0,0,1-.55-.17.86.86,0,0,1-.34-.5l-1.23-4.13L184,104.38a.89.89,0,0,1-.33.5.92.92,0,0,1-.55.17.87.87,0,0,1-.54-.17.8.8,0,0,1-.33-.47L181,99.64a.53.53,0,0,1,0-.16.49.49,0,0,1,.18-.4.6.6,0,0,1,.41-.16.54.54,0,0,1,.34.12.61.61,0,0,1,.2.34l1.08,4.43,1.25-4.18a1,1,0,0,1,.3-.53.74.74,0,0,1,.5-.17.73.73,0,0,1,.49.17,1,1,0,0,1,.3.53l1.25,4.18,1.08-4.43a.61.61,0,0,1,.2-.34.55.55,0,0,1,.35-.12.64.64,0,0,1,.41.16.58.58,0,0,1,.15.56l-1.25,4.77A.85.85,0,0,1,187.91,104.88Z" transform="translate(-75.5 -57.37)"/><path class="cls-6" d="M190.28,101.81A1.84,1.84,0,0,1,191,101a2.12,2.12,0,0,1,1.13-.3,2.41,2.41,0,0,1,.87.16,1.53,1.53,0,0,1,.6.45,2,2,0,0,1,.35.65,2.77,2.77,0,0,1,.13.78.46.46,0,0,1-.08.27.26.26,0,0,1-.23.1H191.1a1.1,1.1,0,0,0,1.22,1.19,2,2,0,0,0,1.12-.42.27.27,0,0,1,.17-.06.33.33,0,0,1,.23.11.39.39,0,0,1,.1.27.37.37,0,0,1-.13.29,2.4,2.4,0,0,1-1.57.56,2.2,2.2,0,0,1-1.6-.58,2.17,2.17,0,0,1-.61-1.63A2.37,2.37,0,0,1,190.28,101.81Zm2.89.74a1.45,1.45,0,0,0-.28-.8.88.88,0,0,0-.74-.31.91.91,0,0,0-.74.33,1.29,1.29,0,0,0-.3.78Z" transform="translate(-75.5 -57.37)"/><path class="cls-6" d="M194.76,104.33a.35.35,0,0,1,.1-.25.3.3,0,0,1,.24-.1.49.49,0,0,1,.22.06,3.21,3.21,0,0,0,.3.16,1.92,1.92,0,0,0,.36.13,2.15,2.15,0,0,0,.5.07,2,2,0,0,0,.44-.05.67.67,0,0,0,.33-.18.44.44,0,0,0,.14-.33c0-.24-.2-.41-.59-.5l-.66-.17-.49-.15a2.39,2.39,0,0,1-.38-.16,1.16,1.16,0,0,1-.29-.22.86.86,0,0,1-.16-.3,1.09,1.09,0,0,1-.07-.42,1,1,0,0,1,.47-.89,2.14,2.14,0,0,1,1.22-.31,3.17,3.17,0,0,1,1.39.31.37.37,0,0,1,.23.34.32.32,0,0,1-.09.23.28.28,0,0,1-.23.1.34.34,0,0,1-.16,0l-.1,0-.12,0-.13,0-.17,0-.17,0-.19,0h-.19a1.34,1.34,0,0,0-.56.1.37.37,0,0,0-.23.34.32.32,0,0,0,.13.29,1.52,1.52,0,0,0,.47.18l.66.16a2.28,2.28,0,0,1,1,.46,1.07,1.07,0,0,1,.32.81,1.15,1.15,0,0,1-.48,1,2.07,2.07,0,0,1-1.24.34,2.74,2.74,0,0,1-1.66-.49A.32.32,0,0,1,194.76,104.33Z" transform="translate(-75.5 -57.37)"/><path class="cls-6" d="M199.79,104.73a1.47,1.47,0,0,1-.32-1v-2.19h-.41a.36.36,0,0,1-.28-.1.33.33,0,0,1-.1-.26.33.33,0,0,1,.09-.25.34.34,0,0,1,.28-.1h.44l.13-1a.57.57,0,0,1,.16-.37.45.45,0,0,1,.36-.15.36.36,0,0,1,.29.12.58.58,0,0,1,.11.37v1.08h.68a.33.33,0,0,1,.27.1.4.4,0,0,1,.09.27.35.35,0,0,1-.09.25.39.39,0,0,1-.28.09h-.67v1.93a1.33,1.33,0,0,0,.1.6.35.35,0,0,0,.36.2h.37a.34.34,0,0,1,.28.11.42.42,0,0,1,.1.28.48.48,0,0,1,0,.18.32.32,0,0,1-.11.12l-.15.08a.87.87,0,0,1-.21,0h-.56A1.19,1.19,0,0,1,199.79,104.73Z" transform="translate(-75.5 -57.37)"/><path class="cls-6" d="M203.26,104.88a.54.54,0,0,1-.18-.42.58.58,0,0,1,.18-.42.6.6,0,0,1,.43-.17.64.64,0,0,1,.44.17.57.57,0,0,1,.17.42.55.55,0,0,1-.17.42.59.59,0,0,1-.44.18A.57.57,0,0,1,203.26,104.88Z" transform="translate(-75.5 -57.37)"/><rect class="cls-7" x="93.1" y="39.32" width="46.39" height="10.21"/><rect class="cls-1" x="27.96" y="106.18" width="57.5" height="16.34"/><polygon class="cls-6" points="72.52 110.24 43.35 110.24 43.35 107.65 31.89 114.11 43.35 120.56 43.35 117.97 72.52 117.97 72.52 110.24"/><polygon class="cls-6" points="79.49 66.59 62.01 67.17 62.01 64.97 56.34 70.45 62.01 75.94 62.01 73.74 79.49 74.31 79.49 66.59"/><polygon class="cls-8" points="92 333.08 80.84 333.08 82.51 3.69 90.33 3.69 92 333.08"/><rect class="cls-8" x="76.05" y="329.09" width="20.12" height="28.71"/><path class="cls-9" d="M150,70.88h21.53V82.44a10.77,10.77,0,0,1-10.76,10.77h0A10.77,10.77,0,0,1,150,82.44Z" transform="translate(-75.5 -57.37)"/><path class="cls-8" d="M83,.5h4.48a11,11,0,0,1,11,11V22.83a0,0,0,0,1,0,0H72a0,0,0,0,1,0,0V11.48A11,11,0,0,1,83,.5Z"/></g><g id="Character"><ellipse class="cls-10" cx="182.71" cy="360.85" rx="31.37" ry="10.29"/><path class="cls-8" d="M267,241.75s14.84-.14,21.46,2.44,9.66,18.32,9.74,24.44-3.94,8.61-3.94,8.61l.59,3.89a10.15,10.15,0,0,1,7.43,10.66c-.3,8.88-.47,18.46-7.16,21.64s-36.25-.71-40.8-7.68,4.14-18.54,2.15-29.68-4-22.11-3.39-30.09S267,241.75,267,241.75Z" transform="translate(-75.5 -57.37)"/><path class="cls-1" d="M302.31,291.79a10.15,10.15,0,0,0-7.43-10.66l-.59-3.89s4-2.5,3.94-8.61c-.07-5.6-2.63-19.29-8.15-23.53l-.09.07s-5.21-2.83-8.08,3.07-3.79,16.13-3.37,22.45-2.2,20.61-3.24,30.13c-.65,5.89,1.41,10.51,5.17,13.41,6.43.59,12.17.4,14.68-.8C301.84,310.25,302,300.67,302.31,291.79Z" transform="translate(-75.5 -57.37)"/><path class="cls-8" d="M295.71,256.83a83.32,83.32,0,0,1-13.69,3l-.2,2.78a50,50,0,0,0,14.29-2.78Z" transform="translate(-75.5 -57.37)"/><path class="cls-8" d="M301.62,287.08a90.46,90.46,0,0,1-9.08,3.49c-4,1.19-6,1.19-5.76,3.18s.4,10.92,3.57,13.3,9.22,1.17,11.27-2.05C303.55,302,305.21,294.52,301.62,287.08Z" transform="translate(-75.5 -57.37)"/><path class="cls-8" d="M294.29,277.24s-6.59,1.79-21.4,3.86l.17,4.9s15.34-2.2,21.82-4.87Z" transform="translate(-75.5 -57.37)"/><path class="cls-9" d="M236.76,348.46s-2,8.4-1,14.06,10.57,29.91,11.51,33.82,1.7,7.8,1.7,7.8l5.8-.62A114.47,114.47,0,0,0,253.23,386c-1.65-10.94-1.46-16-2.88-20.45a31.09,31.09,0,0,0-2.2-5.74l3-7.47Z" transform="translate(-75.5 -57.37)"/><path class="cls-9" d="M259.84,355s-1.16,6.37-.87,9.54,5.89,29.4,6.92,34.53,1.84,10.61,1.84,10.61l5,.54s2.66-15,2.09-23.94-4.25-20.72-4.25-20.72l5.21-11.67Z" transform="translate(-75.5 -57.37)"/><path class="cls-8" d="M241.63,316.68s-3.7,11-5.47,19.52a104.1,104.1,0,0,0-2,15.36,54.14,54.14,0,0,0,8.52,2.24c4.12.65,9.52,1.27,9.52,1.27l.15,1.05s2.18,1.9,11.46,1.65a147.9,147.9,0,0,0,16.89-1.44s.82-24,.07-28a70.75,70.75,0,0,1-1-7.25s-11.81.07-23-.74S241.63,316.68,241.63,316.68Z" transform="translate(-75.5 -57.37)"/><path class="cls-7" d="M234.46,348.59s12.23,3.29,17.88,2.9" transform="translate(-75.5 -57.37)"/><path class="cls-7" d="M252.6,352.28s14.86,2.89,28.14-.53" transform="translate(-75.5 -57.37)"/><path class="cls-7" d="M252.15,355.07l3-23.94a27.49,27.49,0,0,1,3.39-2.3" transform="translate(-75.5 -57.37)"/><line class="cls-7" x1="179.58" y1="274.77" x2="174.55" y2="269.32"/><path class="cls-9" d="M255.46,252s-8.42-1-11.36-.59-8.73,1.69-11.17,1.63-11.06.13-14.53-.12-8.6-.16-7.63,2.47,7.76,8.47,14.83,10.5l11.4,3.27s4.49,11.85,6.62,16.07,2,9.11,2.06,11.67-5,20.93-5,20.93,4.86,3.61,16.27,5a83.08,83.08,0,0,0,21.92-.5,6.71,6.71,0,0,0,1.64-.23s.33-15.68.32-28.36,3.41-21.28-1.12-29.41-15.84-11-19-11.85A14.07,14.07,0,0,0,255.46,252Z" transform="translate(-75.5 -57.37)"/><path class="cls-9" d="M260.66,252.46a14.07,14.07,0,0,0-5.2-.5s-8.42-1-11.36-.59-8.73,1.69-11.17,1.63c-1.05,0-3.26,0-5.71,0a20.79,20.79,0,0,0-4.91,11.62,25.07,25.07,0,0,0,3.29,1.22l11.4,3.27s4.49,11.85,6.62,16.07,2,9.11,2.06,11.67-5,20.93-5,20.93,4.86,3.61,16.27,5a83.08,83.08,0,0,0,21.92-.5,6.71,6.71,0,0,0,1.64-.23s.33-15.68.32-28.36,3.41-21.28-1.12-29.41S263.86,253.27,260.66,252.46Z" transform="translate(-75.5 -57.37)"/><path class="cls-4" d="M251.48,251.87a34,34,0,0,0-.72,10.73c.7,4.88,3.72,6.27,7.43,5.57s7.66-7.19,8.59-10.67.69-4.64-3.48-5.57S253.59,248.32,251.48,251.87Z" transform="translate(-75.5 -57.37)"/><polyline class="cls-11" points="156.52 200 163 211.02 158.68 206.7"/><line class="cls-11" x1="163" y1="211.02" x2="160.63" y2="201.08"/><path class="cls-11" d="M256.33,284.88s8.13,6.74,16.95,5.81" transform="translate(-75.5 -57.37)"/><path class="cls-11" d="M252.62,287.44a41.88,41.88,0,0,0,16,3.71" transform="translate(-75.5 -57.37)"/><path class="cls-8" d="M244.93,301.52s4.3,4.48,16.28,3.73,19.62-3.9,19.62-3.9l-.05,3.82s-15.68,5.46-28.34,2.92c-7.52-1.51-8.59-2.94-8.59-2.94Z" transform="translate(-75.5 -57.37)"/><path class="cls-9" d="M222.69,255.45s3.11-1.39,7.38-5.94,8.48-6.8,10.47-7.12a40.24,40.24,0,0,0,6.38-1.73c.6-.31,3.3-.8,4.24-2.59s-.85-1-1.9-.95-.14-1.16,1-2.47,3.8-4.47,3.47-6.23-2.84-.79-6.79,1-6.53,5.43-7.44,6.75a6.91,6.91,0,0,1-1.52,1.74s-9.31,4-16.76,7.7-10.79,6.62-10.74,9.17,2.77,3.22,2.77,3.22" transform="translate(-75.5 -57.37)"/><path class="cls-4" d="M251.69,250.17s.25,4.81.86,9.3,2.68,7.89,6.63,5.27,5.36-9,5.36-9A27,27,0,0,1,251.69,250.17Z" transform="translate(-75.5 -57.37)"/><path class="cls-9" d="M245,239.85s-1.36,1.1-.46,4a3.5,3.5,0,0,0,4.55,2.12c.19-.33,1.08,3.93,2.39,5.91s7.64,5.51,10.34,6,5-1.09,5.42-2.69a87.44,87.44,0,0,0,1-12.75c0-4.28.35-6.05-.46-7.82s-2.34-3.16-7.6-3.63-8.41,1.44-11,3.3a4.3,4.3,0,0,0-2.1,4.21Z" transform="translate(-75.5 -57.37)"/><path class="cls-8" d="M246.71,238.61a8.09,8.09,0,0,0,1.61,2.68,9.13,9.13,0,0,0,1.6,1.48l-.5-2.51,1.14.76a14.7,14.7,0,0,0-.14-1.63c-.11-.78,1.19.17,1.19.17a8.3,8.3,0,0,1,.47-3,4.7,4.7,0,0,1,.77-1.23S247.42,237.2,246.71,238.61Z" transform="translate(-75.5 -57.37)"/><path class="cls-1" d="M245,239.85s8-6.69,23.08-4.57c0,0-.83-8.61-2.1-10s-5.36-3.82-11.84-1.81-10.32,5.58-10.47,7.62S245,239.85,245,239.85Z" transform="translate(-75.5 -57.37)"/><path class="cls-1" d="M252.08,236.6s4.09,1.33,7.16.35a28.51,28.51,0,0,1,12.19-1.85c5.7.41,4.92.53,4.92.53s-3.19-2-11-1.66S251.61,236,252.08,236.6Z" transform="translate(-75.5 -57.37)"/><path class="cls-1" d="M267,235.37s1.64,1,6.54,1.85,4.39-.37,2.85-1.59S267.43,234.81,267,235.37Z" transform="translate(-75.5 -57.37)"/><path class="cls-4" d="M263.52,238a1.91,1.91,0,0,0-.23,1.95,16.11,16.11,0,0,1,.78,4.59c0,.34-.06.77-1.25.68a14.18,14.18,0,0,1-2.61-.53" transform="translate(-75.5 -57.37)"/><path class="cls-12" d="M259,239.93c0,.66-.37,1.17-.72,1.14s-.6-.58-.56-1.23.38-1.18.73-1.15S259.07,239.27,259,239.93Z" transform="translate(-75.5 -57.37)"/><path class="cls-12" d="M266.28,239.43c0,.66-.37,1.17-.72,1.14s-.6-.58-.55-1.23.37-1.17.72-1.15S266.33,238.77,266.28,239.43Z" transform="translate(-75.5 -57.37)"/><path class="cls-4" d="M255.5,237.79s1.55-2.64,4.14-1.75" transform="translate(-75.5 -57.37)"/><path class="cls-9" d="M264.56,235.46s2.37-.77,2.92,1.06" transform="translate(-75.5 -57.37)"/><path class="cls-4" d="M260,249.88s2-2.83,4.05-.57" transform="translate(-75.5 -57.37)"/><path class="cls-8" d="M272.32,257s-5.24.77-6.54,10.31c-1.19,8.7,3.26,17.89,5.78,21.31s4.36,5.41,5.62,5.5,2.54.19,3.87-7,4.4-12.76,1.41-19.35S277.74,260.42,272.32,257Z" transform="translate(-75.5 -57.37)"/><path class="cls-8" d="M247.75,251.49a28.87,28.87,0,0,0-6.3,11.92c-2.19,7.83,2.05,21.11,2.65,22.42a19.49,19.49,0,0,1,1,3.78,44.26,44.26,0,0,1-6.54-11.93,29.72,29.72,0,0,1-1.35-18.05,22.89,22.89,0,0,1,4.51-8A19.6,19.6,0,0,1,247.75,251.49Z" transform="translate(-75.5 -57.37)"/><path class="cls-1" d="M274.15,407.22s-6.82.16-7.49.48-.66,2.66-.66,2.66-4.37,6.2-6.6,7.44-5.68,3.36-5.21,4.61,1.2,1.48,5.46,1.79,11.24-3,13.88-3.32,2.38-.67,2.15-2.64-1.51-7.38-1.51-7.38A6.47,6.47,0,0,0,274.15,407.22Z" transform="translate(-75.5 -57.37)"/><path class="cls-9" d="M266,410.36s-1.27-4.29.41-4.45,3.48-.4,3.55,1.19a13.31,13.31,0,0,1-.85,4S266.87,411.16,266,410.36Z" transform="translate(-75.5 -57.37)"/><path class="cls-9" d="M269.11,411.14s-2.22,3.57-4.27,4.91-3-.22-2.85-.58,4-5.11,4-5.11Z" transform="translate(-75.5 -57.37)"/><path class="cls-8" d="M258.44,422.9c-3-.22-3.88-1.12-4.15-1.56a1.3,1.3,0,0,0-.1,1.07c.47,1.24,1.2,1.48,5.46,1.79s11.24-3,13.88-3.32,2.38-.67,2.15-2.64c0-.1,0-.22-.05-.34-1.13.43-2.78,1-4.51,1.5C268,420.29,262.43,423.19,258.44,422.9Z" transform="translate(-75.5 -57.37)"/><path class="cls-1" d="M255.49,401s-6.74.34-7.35,1.14-2.88,4.92-5.82,6.94-5.64,1.92-6.51,3.63,1.81,2.09,5,2.88,5.21.1,8.12-1.46,5.4-1.1,8-2-.3-7.39-.25-8,.63-1,.25-2.21A1.08,1.08,0,0,0,255.49,401Z" transform="translate(-75.5 -57.37)"/><path class="cls-8" d="M256.92,412.12c1.06-.38,1.19-1.68,1-3.13-1.18,1.2-3.81,1.46-6.17,2.47-2.79,1.2-4.87,2.82-9.06,2.79a18.87,18.87,0,0,1-6.91-1.45c-.75,1.64,1.88,2,5,2.81s5.21.1,8.12-1.46S254.34,413.05,256.92,412.12Z" transform="translate(-75.5 -57.37)"/><path class="cls-9" d="M246.64,404.75s-.72-2.85-1.2-4,3.7-2.15,4.26-.81-1.06,5.52-1.06,5.52Z" transform="translate(-75.5 -57.37)"/><path class="cls-9" d="M248.64,405.46s-1.84,3.5-4,4.46-3.14-.42-3.14-.42a11.19,11.19,0,0,0,4.82-4.77Z" transform="translate(-75.5 -57.37)"/><path class="cls-13" d="M275.5,338.15s-7-.63-13-1.3-8.52-1-8.52-1,2,12.68,2,13.5-4.14,12.95-4.14,12.95l4.5,14.21s19.58-.57,26.78-.87S302,373,302,373s-6.76-9.09-8.23-11.43a31.54,31.54,0,0,0-2.46-3.47L301.58,347s-1.41-9.75-2-11.21-.79-2.06-.79-2.06S279.59,338.57,275.5,338.15Z" transform="translate(-75.5 -57.37)"/><g class="cls-14"><path class="cls-6" d="M288.08,345.7h13.31c-.09-.57-.2-1.29-.32-2.08H289.76c2.49-3.21,5.35-7.23,6.84-9.36l-3.08.73c-3,4.29-7.41,10.2-8.93,11.39-1.76,1.39-12.82,6.92-19.08,10,1.42-3.63,2.64-7.22,2.4-8.31a28.88,28.88,0,0,0-1.75-3.9l6.79-6.26-2.8-.26-5,4.59c-1-1.86-2-3.83-2.89-5.41l-2.54-.29c2.66,4.87,5.92,11,6.12,11.94.08,1.07-2.35,7.5-4.65,12.84a1,1,0,0,0,.39,1.3l4.2,2.66-7.71,3-5.51-3.68,1,3.18,2.13,1.43-1.5.58.64,2,3-1.17,6.47,4.31a1,1,0,0,0,1.25-.07l6.64-5.62c3.74,2.3,7.76,4.71,10.83,6.4h.1c1.78-.08,3.84-.28,5.92-.53l-4.94-5.06a16.8,16.8,0,0,0,7.41,1.4,36.11,36.11,0,0,0,8.55-1.11c-.42-.56-.87-1.18-1.34-1.83-5.57,1.25-11.08,1.15-13.9-.43a3.39,3.39,0,0,1-1.84-2.22,1.14,1.14,0,0,1,.27-1.05c1.44-1.69,6.93-2.26,11.18-2.28-.26-.38-.48-.7-.63-.95-.26-.42-.5-.78-.73-1.12-3.82.11-9.44.68-11.41,3a3.24,3.24,0,0,0-.73,2.83,5.07,5.07,0,0,0,.25.78l-7-7.2.47-5.72,1.33-.67L291.51,358l1.58-1.72-14.43-4.15a66.84,66.84,0,0,0,7.22-4.08A16.58,16.58,0,0,0,288.08,345.7Zm-23.27,27.09-4.6-3.07,7.79-3.05,2.33,1.45Zm21,2c-1.89-1-4.58-2.52-7.51-4.27l2.5-.85ZM279.17,368l-3.21,1.1c-4.64-2.82-9.48-5.86-12.49-7.79.28-.64.57-1.33.87-2.05,1-.47,4.3-2.1,8.09-4L272,360.2a1.05,1.05,0,0,0,.3.81Z" transform="translate(-75.5 -57.37)"/><path class="cls-15" d="M301.58,347,256,349.38c-.06.82-4.14,12.95-4.14,12.95l39.5-4.19Z" transform="translate(-75.5 -57.37)"/><line class="cls-11" x1="201.8" y1="283.02" x2="191.02" y2="284.42"/><line class="cls-11" x1="202" y1="285.02" x2="194.42" y2="287.81"/><line class="cls-11" x1="208.19" y1="284.62" x2="216.58" y2="286.22"/><line class="cls-11" x1="208.99" y1="282.62" x2="215.18" y2="282.62"/></g><path class="cls-4" d="M275.5,338.15s-7-.63-13-1.3-8.52-1-8.52-1,2,12.68,2,13.5-4.14,12.95-4.14,12.95l4.5,14.21s19.58-.57,26.78-.87S302,373,302,373s-6.76-9.09-8.23-11.43a31.54,31.54,0,0,0-2.46-3.47L301.58,347s-1.41-9.75-2-11.21-.79-2.06-.79-2.06S279.59,338.57,275.5,338.15Z" transform="translate(-75.5 -57.37)"/><path class="cls-9" d="M286.49,296.79c0-3.13-.79-6.66-.48-11s.32-15.49-1.76-18.77-8.55-6.53-8.55-6.53a11.22,11.22,0,0,0-4.65,6.61c-1.14,4.55.17,10.43.17,10.43s4.67,15.28,4.77,15.63a72.82,72.82,0,0,1,0,9.95,33.42,33.42,0,0,0,1.25,11.44,95.44,95.44,0,0,1,1.4,15.73,5.27,5.27,0,0,1-1.88,3.57c-.88,1-2.17,2.85-1.6,4.51h1.74s.63,2.37.71,3-.15,3.58,1,3.66,2.1-1.93,2.1-1.93,3-.13,3.74-2,.15-6.82.15-6.82,1.61-12.62,2.55-20.77S286.49,299.91,286.49,296.79Z" transform="translate(-75.5 -57.37)"/><path class="cls-9" d="M275.7,260.46a11.22,11.22,0,0,0-4.65,6.61c-1.14,4.55.17,10.43.17,10.43s1.78,5.82,3.16,10.35a20.3,20.3,0,0,0,11.56-.25c0-.6,0-1.21.07-1.84.32-4.38.32-15.49-1.76-18.77S275.7,260.46,275.7,260.46Z" transform="translate(-75.5 -57.37)"/><path class="cls-11" d="M275.88,269.25c-3.24,3.46-3.89,10.59-3.89,10.59s-.86-7.56,2.38-13" transform="translate(-75.5 -57.37)"/></g></svg>